<svg width="31" height="31" viewBox="0 0 31 31" fill="none" xmlns="http://www.w3.org/2000/svg">
<g clip-path="url(#clip0_402_176)">
<path d="M15.3199 22.7C19.3958 22.7 22.6999 19.3959 22.6999 15.32C22.6999 11.2441 19.3958 7.94 15.3199 7.94C11.2441 7.94 7.93994 11.2441 7.93994 15.32C7.93994 19.3959 11.2441 22.7 15.3199 22.7Z" fill="#EE9051"/>
<path d="M15.32 30.65C6.87 30.65 0 23.77 0 15.32C0 6.87 6.87 0 15.32 0C23.77 0 30.64 6.87 30.64 15.32C30.64 23.77 23.77 30.64 15.32 30.64V30.65ZM15.32 4.88C9.56 4.88 4.88 9.56 4.88 15.32C4.88 21.08 9.56 25.76 15.32 25.76C21.08 25.76 25.76 21.08 25.76 15.32C25.76 9.56 21.08 4.88 15.32 4.88Z" fill="#EE9051"/>
</g>
<defs>
<clipPath id="clip0_402_176">
<rect width="30.65" height="30.65" fill="white"/>
</clipPath>
</defs>
</svg>
